<svg width="24" height="24" fill="none" xmlns="http://www.w3.org/2000/svg"><path d="M12 15h-2a1 1 0 00-1 1v7a1 1 0 102 0v-1h1a3.5 3.5 0 100-7zm0 5h-1v-3h1a1.5 1.5 0 110 3zm12 0v2.109a1 1 0 01-.277.691A3.757 3.757 0 0121 24c-2.206 0-4-2.019-4-4.5s1.794-4.5 4-4.5a3.673 3.673 0 012.06.64 1.002 1.002 0 01-1.125 1.657A1.651 1.651 0 0021 17c-1.102 0-2 1.125-2 2.5s.898 2.5 2 2.5c.36-.004.71-.123 1-.339V21a1 1 0 010-2h1a1 1 0 011 1zM7 16v4.75a3.25 3.25 0 11-6.5 0 1 1 0 112 0 1.25 1.25 0 002.5 0V16a1 1 0 112 0zm16.707-8.707l-7-7A1 1 0 0016 0H4a2 2 0 00-2 2v9a1 1 0 102 0V2h11v6a1 1 0 001 1h6v2a1 1 0 002 0V8a1 1 0 00-.293-.707zM17 7V3.414L20.586 7H17z" fill="#7723FF"/></svg>