<svg width="24" height="24" fill="none" xmlns="http://www.w3.org/2000/svg"><path d="M23.666 16a1 1 0 01-1 1h-3v2h2a1 1 0 010 2h-2v2a1 1 0 11-2 0v-7a1 1 0 011-1h4a1 1 0 011 1zm-16.5 2.5a3.5 3.5 0 01-3.5 3.5h-1v1a1 1 0 11-2 0v-7a1 1 0 011-1h2a3.5 3.5 0 013.5 3.5zm-2 0a1.5 1.5 0 00-1.5-1.5h-1v3h1a1.5 1.5 0 001.5-1.5zm11 1a4.5 4.5 0 01-4.5 4.5h-2a1 1 0 01-1-1v-7a1 1 0 011-1h2a4.5 4.5 0 014.5 4.5zm-2 0a2.5 2.5 0 00-2.5-2.5h-1v5h1a2.5 2.5 0 002.5-2.5zM.666 11V2a2 2 0 012-2h12a1 1 0 01.707.292l7 7a1 1 0 01.293.708v3a1 1 0 11-2 0V9h-6a1 1 0 01-1-1V2h-11v9a1 1 0 11-2 0zm15-4h3.586l-3.586-3.586V7z" fill="#FF2323"/></svg>