<svg width="72" height="72" fill="none" xmlns="http://www.w3.org/2000/svg"><g clip-path="url(#clip0_224_6102)" stroke="#A7ABB2" stroke-width="3" stroke-linecap="round" stroke-linejoin="round"><path d="M29.25 24.75h13.5m21.822 18.652L52.296 15.47a6.75 6.75 0 00-9.546 0v31.78m-13.5 0V15.469a6.75 6.75 0 00-9.546 0L7.428 43.402"/><path d="M18 58.5c6.213 0 11.25-5.037 11.25-11.25S24.213 36 18 36 6.75 41.037 6.75 47.25 11.787 58.5 18 58.5zm36 0c6.213 0 11.25-5.037 11.25-11.25S60.213 36 54 36s-11.25 5.037-11.25 11.25S47.787 58.5 54 58.5z"/></g><defs><clipPath id="clip0_224_6102"><path fill="#fff" d="M0 0h72v72H0z"/></clipPath></defs></svg>