<svg width="147" height="104" fill="none" xmlns="http://www.w3.org/2000/svg"><g clip-path="url(#clip0_921_1686)"><path fill-rule="evenodd" clip-rule="evenodd" d="M56.526 71.466l-40.57 10.87a6 6 0 01-4.242 7.35l5.176 19.318a6 6 0 017.349 4.242l40.569-10.87a6 6 0 014.242-7.349L63.874 75.71a6 6 0 01-7.348-4.243z" fill="#1C468A"/><path fill-rule="evenodd" clip-rule="evenodd" d="M56.526 71.466l-40.57 10.87a6 6 0 01-4.242 7.35l5.176 19.318a6 6 0 017.349 4.242l40.569-10.87a6 6 0 014.242-7.349L63.874 75.71a6 6 0 01-7.348-4.243z" fill="url(#paint0_linear_921_1686)" style="mix-blend-mode:plus-lighter"/><path d="M22.449 101.303l-1.35.361.774-9.242 1.47-.394 5.292 7.617-1.35.362-4.232-6.26-.065.017-.54 7.539zm-.659-3.362l4.38-1.174.287 1.07-4.38 1.174-.287-1.07zm13.064.038l-3.845-3.02-.897.24 1.013 3.779-1.272.34-2.26-8.43 1.273-.34.954 3.56.415-.11 2.232-4.415 1.552-.416-2.36 4.678 4.747 3.718-1.552.416zm9.908-3.86l.724 3.146-1.268.34-.534-1.992-.593.159-.3-1.124 1.97-.528zm-7.178 3.128l-2.259-8.43 1.218-.326 1.964 7.327 4.066-1.09-1.963-7.327 1.223-.327 2.259 8.43-6.508 1.743zm6.615-10.808l1.26-.337 1.659 6.19.078-.02 2.63-7.34 1.178-.316 2.258 8.43-1.272.341-1.656-6.182-.078.02-2.625 7.33-1.173.314-2.258-8.43zm16.895 4.509l-1.276.342-1.966-7.34-1.597.428c-.417.112-.74.266-.966.462-.228.194-.37.423-.429.689-.058.265-.045.557.04.875.085.316.218.57.399.763.181.192.416.313.706.362.29.049.641.018 1.056-.093l2.16-.58.294 1.096-2.28.61c-.65.175-1.222.212-1.713.111a2.296 2.296 0 01-1.215-.65c-.32-.334-.548-.76-.687-1.275-.139-.52-.154-1.005-.046-1.457a2.33 2.33 0 01.717-1.194c.373-.341.885-.599 1.536-.773l3.009-.806 2.258 8.43zm-5.18-2.689l1.407-.377-1.026 4.352-1.445.387 1.064-4.362z" fill="#fff"/></g><g clip-path="url(#clip1_921_1686)"><path fill-rule="evenodd" clip-rule="evenodd" d="M147.058-18.802L108.689-1.719a6 6 0 01-3.041 7.922l8.135 18.27a6 6 0 017.922 3.042l38.369-17.083a6 6 0 013.041-7.922l-8.135-18.27a6 6 0 01-7.922-3.042z" fill="#FF1F2A"/><path fill-rule="evenodd" clip-rule="evenodd" d="M147.058-18.802L108.689-1.719a6 6 0 01-3.041 7.922l8.135 18.27a6 6 0 017.922 3.042l38.369-17.083a6 6 0 013.041-7.922l-8.135-18.27a6 6 0 01-7.922-3.042z" fill="url(#paint1_linear_921_1686)" style="mix-blend-mode:plus-lighter"/><path d="M118.068 15.998l-1.277.569-.68-9.25 1.39-.62 6.418 6.696-1.276.568-5.159-5.52-.063.027.647 7.53zm-1.176-3.217l4.142-1.845.451 1.013-4.142 1.844-.451-1.012zm12.909-2.007l-4.27-2.38-.848.377 1.591 3.574-1.203.535-3.55-7.972 1.203-.536 1.499 3.367.393-.175 1.514-4.709 1.468-.653-1.599 4.99 5.269 2.929-1.467.653zm9.182-5.361l1.207 2.994-1.199.533-.839-1.884-.561.25-.473-1.063 1.865-.83zm-6.6 4.212l-3.55-7.973 1.152-.513 3.085 6.93 3.847-1.713-3.085-6.93 1.156-.514 3.549 7.973-6.154 2.74zm4.843-11.71l1.191-.53 2.607 5.855.074-.033 1.45-7.661 1.113-.496 3.55 7.973-1.203.535-2.603-5.847-.074.033-1.446 7.65-1.109.494-3.55-7.973zm17.392 1.81l-1.207.537-3.09-6.94-1.51.672c-.395.175-.689.378-.882.607-.195.226-.3.475-.316.747a1.84 1.84 0 00.177.859c.133.298.304.528.513.69.209.162.46.245.754.248.293.003.636-.083 1.028-.258l2.044-.91.461 1.036-2.157.96c-.615.274-1.173.4-1.675.377a2.294 2.294 0 01-1.301-.451c-.368-.281-.66-.665-.878-1.153-.218-.49-.309-.968-.273-1.432a2.32 2.32 0 01.521-1.29c.315-.396.781-.73 1.396-1.005l2.846-1.267 3.549 7.973zm-5.537-1.845l1.331-.593-.333 4.459-1.366.608.368-4.474z" fill="#fff"/></g><g clip-path="url(#clip2_921_1686)"><path fill-rule="evenodd" clip-rule="evenodd" d="M41.07-9.757L4.302 27.013a6 6 0 010 8.485L18.443 49.64a6 6 0 018.486 0l36.77-36.77a6 6 0 010-8.485L49.555-9.757a6 6 0 01-8.485 0z" fill="#FFE500"/><path fill-rule="evenodd" clip-rule="evenodd" d="M41.07-9.757L4.302 27.013a6 6 0 010 8.485L18.443 49.64a6 6 0 018.486 0l36.77-36.77a6 6 0 010-8.485L49.555-9.757a6 6 0 01-8.485 0z" fill="url(#paint2_linear_921_1686)" style="mix-blend-mode:color-burn"/><path d="M20.109 31.16l-.94.94a2.033 2.033 0 00-1.483-.355 2.188 2.188 0 00-.72.238c-.229.12-.442.28-.639.476a2.464 2.464 0 00-.687 1.223c-.1.458-.06.942.124 1.45.184.506.526 1.008 1.024 1.506.502.503 1.007.846 1.513 1.03.508.184.991.223 1.45.118a2.47 2.47 0 001.214-.684c.194-.194.353-.405.476-.632.122-.231.203-.47.24-.718a2.061 2.061 0 00-.337-1.476l.943-.937c.254.354.435.73.546 1.13.11.396.145.798.105 1.208a3.51 3.51 0 01-.34 1.19c-.187.388-.45.752-.79 1.091-.534.535-1.137.884-1.808 1.049-.673.163-1.367.127-2.082-.106-.713-.235-1.398-.68-2.055-1.338-.659-.658-1.104-1.344-1.335-2.058-.233-.715-.267-1.408-.102-2.079.163-.673.51-1.275 1.042-1.808a4.07 4.07 0 011.058-.774c.378-.193.77-.312 1.178-.359a3.188 3.188 0 011.22.094c.406.108.801.302 1.185.581zm8.94-.61l-4.84-.694-.657.657 2.766 2.766-.93.931-6.172-6.17.931-.932 2.607 2.607.304-.305-.274-4.938 1.136-1.136.295 5.23 5.97.847-1.137 1.136zm-4.173-8.17l.922-.922 4.532 4.532.057-.058-1.392-7.671.862-.862 6.17 6.171-.93.931-4.526-4.526-.058.057 1.393 7.66-.86.859-6.17-6.171zm13.534 1.79l-2.28-2.28.406-.407a2.512 2.512 0 00-.108-.886c-.095-.336-.282-.729-.564-1.178-.28-.45-.692-.978-1.232-1.582l-2.462-2.752 3.806-3.805 5.381 5.381.7-.699 2.271 2.272-.891.892-1.483-1.482-4.143 4.143 1.491 1.492-.892.891zm-.777-3.784l2.832-2.833-4.58-4.58-2.07 2.07 1.709 1.902c.41.462.758.897 1.045 1.304.29.406.522.789.696 1.148.175.356.298.685.368.989zm9.894-8.315l-4.84-.693-.656.657 2.766 2.766-.931.93-6.171-6.17.93-.931 2.607 2.606.305-.304-.274-4.939 1.136-1.136.295 5.231 5.969.847-1.136 1.136zM43.354 3.9l.922-.922 4.532 4.532.058-.057-1.392-7.672.861-.862 6.171 6.171-.93.931-4.526-4.525-.058.057 1.392 7.66-.858.858-6.172-6.17z" fill="#21262E"/></g><g clip-path="url(#clip3_921_1686)"><path fill-rule="evenodd" clip-rule="evenodd" d="M130.783 57.69L81.328 73.759a6 6 0 01-3.852 7.56l6.18 19.021a6 6 0 017.561 3.852l49.455-16.068a6 6 0 013.852-7.56l-6.18-19.022a6 6 0 01-7.561-3.852z" fill="#FFE500"/><path fill-rule="evenodd" clip-rule="evenodd" d="M130.783 57.69L81.328 73.759a6 6 0 01-3.852 7.56l6.18 19.021a6 6 0 017.561 3.852l49.455-16.068a6 6 0 013.852-7.56l-6.18-19.022a6 6 0 01-7.561-3.852z" fill="url(#paint3_linear_921_1686)" style="mix-blend-mode:color-burn"/><path d="M93.53 84.631l-1.265.411a2.032 2.032 0 00-1.16-.99 2.203 2.203 0 00-.749-.115c-.259.004-.52.049-.785.135a2.465 2.465 0 00-1.168.778c-.297.362-.48.811-.548 1.347-.065.535.011 1.138.23 1.808.219.675.512 1.21.88 1.605.369.393.782.647 1.237.762.456.115.92.096 1.393-.058a2.7 2.7 0 00.711-.347c.214-.15.394-.327.54-.53a2.04 2.04 0 00.37-1.469l1.266-.407c.065.43.056.848-.027 1.255A3.27 3.27 0 0194 89.94c-.22.344-.501.645-.843.906a4.03 4.03 0 01-1.2.614c-.718.233-1.413.271-2.086.113-.673-.16-1.276-.507-1.807-1.04-.529-.532-.937-1.24-1.224-2.124-.288-.886-.373-1.7-.255-2.44.117-.743.401-1.376.853-1.899.45-.526 1.033-.905 1.75-1.137.44-.144.871-.214 1.293-.21.424 0 .829.071 1.213.215.383.141.732.354 1.045.637.312.281.576.633.79 1.056zm8.242 3.514l-3.997-2.814-.883.287 1.209 3.72-1.253.407-2.697-8.3 1.253-.407 1.139 3.506.41-.133 1.997-4.525 1.528-.496-2.112 4.794 4.934 3.465-1.528.496zm-.008-9.173l1.24-.403 1.98 6.095.077-.025 2.243-7.467 1.159-.377 2.697 8.3-1.253.407-1.978-6.087-.077.025-2.237 7.457-1.155.375-2.696-8.3zm11.246 7.74l-.997-3.068.547-.178c.136-.217.238-.497.306-.838.068-.342.079-.777.033-1.306-.047-.529-.173-1.185-.38-1.97l-.945-3.568 5.119-1.663 2.352 7.238.94-.305.993 3.055-1.2.39-.647-1.994-5.573 1.81.652 2.007-1.2.39zm1.026-3.725l3.809-1.238-2.001-6.16-2.785.904.66 2.47c.155.598.268 1.144.339 1.637.073.493.106.94.099 1.34a4.67 4.67 0 01-.121 1.047zm12.59-2.917l-3.997-2.815-.884.287 1.209 3.72-1.252.408-2.697-8.3 1.252-.407 1.14 3.505.409-.133 1.998-4.524 1.528-.497-2.112 4.795 4.934 3.464-1.528.497zm-.009-9.174l1.24-.403 1.981 6.096.077-.025 2.242-7.468 1.16-.377 2.696 8.3-1.252.408-1.978-6.088-.077.025-2.237 7.457-1.155.375-2.697-8.3z" fill="#21262E"/></g><g clip-path="url(#clip4_921_1686)"><path fill-rule="evenodd" clip-rule="evenodd" d="M128.229 42L83.196 16A6 6 0 0175 18.196l-10 17.32a6 6 0 012.196 8.197l45.033 26a6.001 6.001 0 018.197-2.196l10-17.32A6 6 0 01128.229 42z" fill="#1C468A"/><path fill-rule="evenodd" clip-rule="evenodd" d="M128.229 42L83.196 16A6 6 0 0175 18.196l-10 17.32a6 6 0 012.196 8.197l45.033 26a6.001 6.001 0 018.197-2.196l10-17.32A6 6 0 01128.229 42z" fill="url(#paint4_linear_921_1686)" style="mix-blend-mode:plus-lighter"/><path d="M83.28 32.343l-1.15-.665a2.034 2.034 0 00-.041-1.524 2.205 2.205 0 00-.416-.634 2.646 2.646 0 00-.626-.494 2.465 2.465 0 00-1.359-.347c-.468.022-.924.186-1.368.494-.441.31-.838.77-1.19 1.38-.355.615-.557 1.191-.604 1.728-.045.538.042 1.015.262 1.43.219.416.544.748.975.996.238.138.483.237.734.296.255.059.507.075.755.047a2.04 2.04 0 001.339-.708l1.15.669a3.56 3.56 0 01-.951.819c-.354.21-.734.347-1.14.415a3.536 3.536 0 01-1.238-.021 4.002 4.002 0 01-1.258-.48c-.654-.378-1.148-.87-1.48-1.475-.332-.608-.478-1.288-.438-2.039.043-.75.296-1.527.76-2.331.467-.807 1.014-1.415 1.643-1.822.63-.41 1.291-.623 1.982-.637.692-.017 1.364.162 2.016.539.401.231.742.505 1.022.821.284.315.501.663.651 1.045.152.38.227.78.226 1.203 0 .42-.085.852-.255 1.295zm2.904 8.476l-.582-4.853-.805-.465-1.956 3.388-1.14-.658 4.363-7.559 1.14.659-1.842 3.192.372.215 4.7-1.543 1.391.803-4.976 1.64.727 5.985-1.391-.804zm6.812-6.145l1.13.653-3.205 5.55.07.04 7.05-3.33 1.055.61-4.364 7.557-1.14-.658 3.2-5.543-.07-.04-7.038 3.327-1.052-.608 4.364-7.557zm1.773 13.538l1.613-2.794.498.287a2.51 2.51 0 00.828-.334c.3-.178.63-.46.992-.849.362-.388.765-.921 1.21-1.6l2.02-3.09 4.661 2.691-3.806 6.591.856.495-1.606 2.782-1.093-.63 1.049-1.816-5.075-2.93-1.054 1.827-1.093-.63zm3.455-1.731l3.469 2.003 3.238-5.61-2.535-1.463-1.394 2.142c-.341.515-.67.965-.99 1.348a8.103 8.103 0 01-.929.97c-.298.26-.584.464-.86.61zm10.592 7.405l-.583-4.854-.804-.464-1.956 3.387-1.141-.658 4.364-7.558 1.14.658-1.843 3.193.373.215 4.699-1.543 1.392.803-4.977 1.639.728 5.985-1.392-.803zm6.812-6.145l1.129.652-3.205 5.55.07.04 7.05-3.33 1.056.61-4.364 7.558-1.14-.658 3.2-5.543-.07-.041-7.038 3.327-1.052-.607 4.364-7.558z" fill="#fff"/></g><g clip-path="url(#clip5_921_1686)"><path fill-rule="evenodd" clip-rule="evenodd" d="M84.426 36.423l-40.569-10.87a6 6 0 01-7.348 4.243l-5.177 19.318a6 6 0 014.243 7.349l40.569 10.87a6 6 0 017.348-4.243l5.177-19.318a6 6 0 01-4.243-7.349z" fill="#FF1F2A"/><path fill-rule="evenodd" clip-rule="evenodd" d="M84.426 36.423l-40.569-10.87a6 6 0 01-7.348 4.243l-5.177 19.318a6 6 0 014.243 7.349l40.569 10.87a6 6 0 017.348-4.243l5.177-19.318a6 6 0 01-4.243-7.349z" fill="url(#paint5_linear_921_1686)" style="mix-blend-mode:plus-lighter"/><path d="M39.996 45.224l-1.35-.362 5.293-7.617 1.47.394.774 9.243-1.35-.362-.535-7.537-.066-.018-4.236 6.259zm1.111-3.24l4.38 1.173-.287 1.07-4.38-1.173.287-1.07zm11.294 6.564l-1.819-4.538-.897-.24-1.013 3.779-1.272-.341 2.26-8.43 1.27.34-.953 3.561.416.112 4.14-2.707 1.551.416-4.382 2.87 2.251 5.594-1.552-.416zm10.51 1.612l-.945 3.086-1.268-.34.534-1.992-.593-.159.301-1.124 1.972.529zm-7.78-.88l2.26-8.43 1.218.326-1.964 7.327 4.067 1.09 1.963-7.327 1.223.327-2.259 8.43-6.508-1.744zm11.134-6.053l1.26.338-1.66 6.19.079.022 5.947-5.042 1.178.316-2.26 8.43-1.271-.341 1.657-6.183-.079-.02-5.937 5.035-1.173-.315 2.259-8.43zM78.642 55.58l-1.276-.342 1.966-7.339-1.597-.428c-.417-.112-.773-.14-1.067-.083-.294.054-.532.18-.716.382-.183.2-.317.46-.402.779a1.754 1.754 0 00-.037.859c.06.257.204.48.43.667.227.187.547.336.962.447l2.16.579-.293 1.095-2.28-.611c-.65-.174-1.163-.428-1.539-.761a2.295 2.295 0 01-.728-1.17c-.108-.45-.094-.932.044-1.448.14-.52.369-.947.689-1.285.32-.34.726-.566 1.218-.675.493-.11 1.066-.076 1.716.098l3.009.806-2.26 8.43zM75.5 50.661l1.407.377-3.064 3.255-1.445-.387L75.5 50.66z" fill="#fff"/></g><defs><linearGradient id="paint0_linear_921_1686" x1="10.161" y1="83.89" x2="71.767" y2="92.409" gradientUnits="userSpaceOnUse"><stop stop-color="#fff" stop-opacity=".16"/><stop offset="1" stop-opacity=".24"/></linearGradient><linearGradient id="paint1_linear_921_1686" x1="103.208" y1=".722" x2="165.388" y2="-.501" gradientUnits="userSpaceOnUse"><stop stop-color="#fff" stop-opacity=".16"/><stop offset="1" stop-opacity=".24"/></linearGradient><linearGradient id="paint2_linear_921_1686" x1=".059" y1="31.255" x2="67.941" y2="8.627" gradientUnits="userSpaceOnUse"><stop stop-color="#fff" stop-opacity=".16"/><stop offset="1" stop-opacity=".16"/></linearGradient><linearGradient id="paint3_linear_921_1686" x1="75.622" y1="75.613" x2="146.378" y2="86.269" gradientUnits="userSpaceOnUse"><stop stop-color="#fff" stop-opacity=".16"/><stop offset="1" stop-opacity=".16"/></linearGradient><linearGradient id="paint4_linear_921_1686" x1="78" y1="13" x2="117.426" y2="72.713" gradientUnits="userSpaceOnUse"><stop stop-color="#fff" stop-opacity=".16"/><stop offset="1" stop-opacity=".24"/></linearGradient><linearGradient id="paint5_linear_921_1686" x1="38.062" y1="24" x2="87.154" y2="62.181" gradientUnits="userSpaceOnUse"><stop stop-color="#fff" stop-opacity=".16"/><stop offset="1" stop-opacity=".24"/></linearGradient><clipPath id="clip0_921_1686"><path fill="#fff" transform="rotate(-15 323.683 3.354)" d="M0 0h54v32H0z"/></clipPath><clipPath id="clip1_921_1686"><path fill="#fff" transform="rotate(-24 53.301 -242.417)" d="M0 0h54v32H0z"/></clipPath><clipPath id="clip2_921_1686"><path fill="#fff" transform="rotate(-45 37.757 15.557)" d="M0 0h64v32H0z"/></clipPath><clipPath id="clip3_921_1686"><path fill="#fff" transform="rotate(-18 276.511 -200.923)" d="M0 0h64v32H0z"/></clipPath><clipPath id="clip4_921_1686"><path fill="#fff" transform="rotate(30 14.742 152.05)" d="M0 0h64v32H0z"/></clipPath><clipPath id="clip5_921_1686"><path fill="#fff" transform="rotate(15 -72.118 156.553)" d="M0 0h54v32H0z"/></clipPath></defs></svg>